<svg width="24" height="25" viewBox="0 0 24 25" fill="none" xmlns="http://www.w3.org/2000/svg">
<path d="M10 2C4.48 2 0 6.48 0 12C0 17.52 4.48 22 10 22C15.5201 22 20 17.52 20 12C20 6.48 15.5301 2 10 2ZM13 14.23L10.0999 15.9C9.73995 16.11 9.34005 16.21 8.94995 16.21C8.55005 16.21 8.15995 16.11 7.8 15.9C7.08 15.48 6.65 14.74 6.65 13.9V10.55C6.65 9.72 7.08 8.97 7.8 8.55C8.52005 8.13 9.37995 8.13 10.11 8.55L13.0099 10.22C13.7299 10.64 14.16 11.38 14.16 12.22C14.16 13.06 13.7299 13.81 13 14.23Z" fill="#8A7EBE"/>
</svg>
